<svg id="visual" width="900" height="300" xmlns="http://www.w3.org/2000/svg" xmlns:xlink="http://www.w3.org/1999/xlink" version="1.1"><path d="M0 213L13.3 212.8C26.7 212.7 53.3 212.3 80 213C106.7 213.7 133.3 215.3 160 216.2C186.7 217 213.3 217 240 217C266.7 217 293.3 217 320 216.7C346.7 216.3 373.3 215.7 400 214.8C426.7 214 453.3 213 480 213.5C506.7 214 533.3 216 560 216.5C586.7 217 613.3 216 640 215.3C666.7 214.7 693.3 214.3 720 214.2C746.7 214 773.3 214 800 213.7C826.7 213.3 853.3 212.7 880 213.3C906.7 214 933.3 216 946.7 217L960 218L960 301L946.7 301C933.3 301 906.7 301 880 301C853.3 301 826.7 301 800 301C773.3 301 746.7 301 720 301C693.3 301 666.7 301 640 301C613.3 301 586.7 301 560 301C533.3 301 506.7 301 480 301C453.3 301 426.7 301 400 301C373.3 301 346.7 301 320 301C293.3 301 266.7 301 240 301C213.3 301 186.7 301 160 301C133.3 301 106.7 301 80 301C53.3 301 26.7 301 13.3 301L0 301Z" fill="#fabd59"></path><path d="M0 229L13.3 229.3C26.7 229.7 53.3 230.3 80 230.7C106.7 231 133.3 231 160 230.5C186.7 230 213.3 229 240 229.5C266.7 230 293.3 232 320 232.2C346.7 232.3 373.3 230.7 400 230.7C426.7 230.7 453.3 232.3 480 233C506.7 233.7 533.3 233.3 560 233C586.7 232.7 613.3 232.3 640 231.8C666.7 231.3 693.3 230.7 720 230.5C746.7 230.3 773.3 230.7 800 230.5C826.7 230.3 853.3 229.7 880 229.8C906.7 230 933.3 231 946.7 231.5L960 232L960 301L946.7 301C933.3 301 906.7 301 880 301C853.3 301 826.7 301 800 301C773.3 301 746.7 301 720 301C693.3 301 666.7 301 640 301C613.3 301 586.7 301 560 301C533.3 301 506.7 301 480 301C453.3 301 426.7 301 400 301C373.3 301 346.7 301 320 301C293.3 301 266.7 301 240 301C213.3 301 186.7 301 160 301C133.3 301 106.7 301 80 301C53.3 301 26.7 301 13.3 301L0 301Z" fill="#de9a61"></path><path d="M0 245L13.3 245.3C26.7 245.7 53.3 246.3 80 247C106.7 247.7 133.3 248.3 160 247.8C186.7 247.3 213.3 245.7 240 245.2C266.7 244.7 293.3 245.3 320 246.2C346.7 247 373.3 248 400 248.5C426.7 249 453.3 249 480 249C506.7 249 533.3 249 560 249C586.7 249 613.3 249 640 248.7C666.7 248.3 693.3 247.7 720 247.3C746.7 247 773.3 247 800 247.3C826.7 247.7 853.3 248.3 880 248.2C906.7 248 933.3 247 946.7 246.5L960 246L960 301L946.7 301C933.3 301 906.7 301 880 301C853.3 301 826.7 301 800 301C773.3 301 746.7 301 720 301C693.3 301 666.7 301 640 301C613.3 301 586.7 301 560 301C533.3 301 506.7 301 480 301C453.3 301 426.7 301 400 301C373.3 301 346.7 301 320 301C293.3 301 266.7 301 240 301C213.3 301 186.7 301 160 301C133.3 301 106.7 301 80 301C53.3 301 26.7 301 13.3 301L0 301Z" fill="#b77d64"></path><path d="M0 264L13.3 263.8C26.7 263.7 53.3 263.3 80 262.8C106.7 262.3 133.3 261.7 160 261.7C186.7 261.7 213.3 262.3 240 262.5C266.7 262.7 293.3 262.3 320 262.7C346.7 263 373.3 264 400 264C426.7 264 453.3 263 480 262.5C506.7 262 533.3 262 560 262C586.7 262 613.3 262 640 262.2C666.7 262.3 693.3 262.7 720 263.2C746.7 263.7 773.3 264.3 800 264.3C826.7 264.3 853.3 263.7 880 263.5C906.7 263.3 933.3 263.7 946.7 263.8L960 264L960 301L946.7 301C933.3 301 906.7 301 880 301C853.3 301 826.7 301 800 301C773.3 301 746.7 301 720 301C693.3 301 666.7 301 640 301C613.3 301 586.7 301 560 301C533.3 301 506.7 301 480 301C453.3 301 426.7 301 400 301C373.3 301 346.7 301 320 301C293.3 301 266.7 301 240 301C213.3 301 186.7 301 160 301C133.3 301 106.7 301 80 301C53.3 301 26.7 301 13.3 301L0 301Z" fill="#886660"></path><path d="M0 279L13.3 279C26.7 279 53.3 279 80 278.8C106.7 278.7 133.3 278.3 160 278.2C186.7 278 213.3 278 240 277.8C266.7 277.7 293.3 277.3 320 277.7C346.7 278 373.3 279 400 279.5C426.7 280 453.3 280 480 279.5C506.7 279 533.3 278 560 277.7C586.7 277.3 613.3 277.7 640 278.3C666.7 279 693.3 280 720 279.8C746.7 279.7 773.3 278.3 800 277.8C826.7 277.3 853.3 277.7 880 278C906.7 278.3 933.3 278.7 946.7 278.8L960 279L960 301L946.7 301C933.3 301 906.7 301 880 301C853.3 301 826.7 301 800 301C773.3 301 746.7 301 720 301C693.3 301 666.7 301 640 301C613.3 301 586.7 301 560 301C533.3 301 506.7 301 480 301C453.3 301 426.7 301 400 301C373.3 301 346.7 301 320 301C293.3 301 266.7 301 240 301C213.3 301 186.7 301 160 301C133.3 301 106.7 301 80 301C53.3 301 26.7 301 13.3 301L0 301Z" fill="#545252"></path></svg>