<svg id="visual" viewBox="0 0 960 540" width="960" height="540" xmlns="http://www.w3.org/2000/svg" xmlns:xlink="http://www.w3.org/1999/xlink" version="1.1"><rect x="0" y="0" width="960" height="540" fill="#545252"></rect><path d="M0 383L13.3 382.8C26.7 382.7 53.3 382.3 80 382.7C106.7 383 133.3 384 160 385.2C186.7 386.3 213.3 387.7 240 388.8C266.7 390 293.3 391 320 391.3C346.7 391.7 373.3 391.3 400 391.5C426.7 391.7 453.3 392.3 480 391.5C506.7 390.7 533.3 388.3 560 387.2C586.7 386 613.3 386 640 386.8C666.7 387.7 693.3 389.3 720 390.7C746.7 392 773.3 393 800 392.8C826.7 392.7 853.3 391.3 880 389.8C906.7 388.3 933.3 386.7 946.7 385.8L960 385L960 541L946.7 541C933.3 541 906.7 541 880 541C853.3 541 826.7 541 800 541C773.3 541 746.7 541 720 541C693.3 541 666.7 541 640 541C613.3 541 586.7 541 560 541C533.3 541 506.7 541 480 541C453.3 541 426.7 541 400 541C373.3 541 346.7 541 320 541C293.3 541 266.7 541 240 541C213.3 541 186.7 541 160 541C133.3 541 106.7 541 80 541C53.3 541 26.7 541 13.3 541L0 541Z" fill="#fabd59"></path><path d="M0 417L13.3 416.8C26.7 416.7 53.3 416.3 80 416.7C106.7 417 133.3 418 160 417.8C186.7 417.7 213.3 416.3 240 415.5C266.7 414.7 293.3 414.3 320 414.5C346.7 414.7 373.3 415.3 400 416.2C426.7 417 453.3 418 480 417.7C506.7 417.3 533.3 415.7 560 414.7C586.7 413.7 613.3 413.3 640 414.7C666.7 416 693.3 419 720 419.2C746.7 419.3 773.3 416.7 800 416C826.7 415.3 853.3 416.7 880 417.8C906.7 419 933.3 420 946.7 420.5L960 421L960 541L946.7 541C933.3 541 906.7 541 880 541C853.3 541 826.7 541 800 541C773.3 541 746.7 541 720 541C693.3 541 666.7 541 640 541C613.3 541 586.7 541 560 541C533.3 541 506.7 541 480 541C453.3 541 426.7 541 400 541C373.3 541 346.7 541 320 541C293.3 541 266.7 541 240 541C213.3 541 186.7 541 160 541C133.3 541 106.7 541 80 541C53.3 541 26.7 541 13.3 541L0 541Z" fill="#de9a61"></path><path d="M0 445L13.3 445.2C26.7 445.3 53.3 445.7 80 445C106.7 444.3 133.3 442.7 160 442.3C186.7 442 213.3 443 240 443.5C266.7 444 293.3 444 320 443.5C346.7 443 373.3 442 400 442.5C426.7 443 453.3 445 480 446C506.7 447 533.3 447 560 446.8C586.7 446.7 613.3 446.3 640 446.3C666.7 446.3 693.3 446.7 720 446.7C746.7 446.7 773.3 446.3 800 446.8C826.7 447.3 853.3 448.7 880 449.2C906.7 449.7 933.3 449.3 946.7 449.2L960 449L960 541L946.7 541C933.3 541 906.7 541 880 541C853.3 541 826.7 541 800 541C773.3 541 746.7 541 720 541C693.3 541 666.7 541 640 541C613.3 541 586.7 541 560 541C533.3 541 506.7 541 480 541C453.3 541 426.7 541 400 541C373.3 541 346.7 541 320 541C293.3 541 266.7 541 240 541C213.3 541 186.7 541 160 541C133.3 541 106.7 541 80 541C53.3 541 26.7 541 13.3 541L0 541Z" fill="#b77d64"></path><path d="M0 473L13.3 472.7C26.7 472.3 53.3 471.7 80 472.3C106.7 473 133.3 475 160 475.2C186.7 475.3 213.3 473.7 240 472.5C266.7 471.3 293.3 470.7 320 470.7C346.7 470.7 373.3 471.3 400 471.5C426.7 471.7 453.3 471.3 480 471.7C506.7 472 533.3 473 560 473.8C586.7 474.7 613.3 475.3 640 475.3C666.7 475.3 693.3 474.7 720 474.8C746.7 475 773.3 476 800 476.7C826.7 477.3 853.3 477.7 880 477.5C906.7 477.3 933.3 476.7 946.7 476.3L960 476L960 541L946.7 541C933.3 541 906.7 541 880 541C853.3 541 826.7 541 800 541C773.3 541 746.7 541 720 541C693.3 541 666.7 541 640 541C613.3 541 586.7 541 560 541C533.3 541 506.7 541 480 541C453.3 541 426.7 541 400 541C373.3 541 346.7 541 320 541C293.3 541 266.7 541 240 541C213.3 541 186.7 541 160 541C133.3 541 106.7 541 80 541C53.3 541 26.7 541 13.3 541L0 541Z" fill="#886660"></path><path d="M0 500L13.3 501.2C26.7 502.3 53.3 504.7 80 504.7C106.7 504.7 133.3 502.3 160 501.8C186.7 501.3 213.3 502.7 240 503.2C266.7 503.7 293.3 503.3 320 502.8C346.7 502.3 373.3 501.7 400 502C426.7 502.3 453.3 503.7 480 503.7C506.7 503.7 533.3 502.3 560 501.5C586.7 500.7 613.3 500.3 640 501.3C666.7 502.3 693.3 504.7 720 505.2C746.7 505.7 773.3 504.3 800 504C826.7 503.7 853.3 504.3 880 504.2C906.7 504 933.3 503 946.7 502.5L960 502L960 541L946.7 541C933.3 541 906.7 541 880 541C853.3 541 826.7 541 800 541C773.3 541 746.7 541 720 541C693.3 541 666.7 541 640 541C613.3 541 586.7 541 560 541C533.3 541 506.7 541 480 541C453.3 541 426.7 541 400 541C373.3 541 346.7 541 320 541C293.3 541 266.7 541 240 541C213.3 541 186.7 541 160 541C133.3 541 106.7 541 80 541C53.3 541 26.7 541 13.3 541L0 541Z" fill="#545252"></path></svg>