<svg id="visual" viewBox="0 0 960 540" width="960" height="540" xmlns="http://www.w3.org/2000/svg" xmlns:xlink="http://www.w3.org/1999/xlink" version="1.1"><rect x="0" y="0" width="960" height="540" fill="#545252"></rect><path d="M0 388L13.3 387C26.7 386 53.3 384 80 384.3C106.7 384.7 133.3 387.3 160 388.5C186.7 389.7 213.3 389.3 240 389.2C266.7 389 293.3 389 320 387.7C346.7 386.3 373.3 383.7 400 383.2C426.7 382.7 453.3 384.3 480 385C506.7 385.7 533.3 385.3 560 385.5C586.7 385.7 613.3 386.3 640 387.3C666.7 388.3 693.3 389.7 720 389.8C746.7 390 773.3 389 800 388.5C826.7 388 853.3 388 880 388.3C906.7 388.7 933.3 389.3 946.7 389.7L960 390L960 541L946.7 541C933.3 541 906.7 541 880 541C853.3 541 826.7 541 800 541C773.3 541 746.7 541 720 541C693.3 541 666.7 541 640 541C613.3 541 586.7 541 560 541C533.3 541 506.7 541 480 541C453.3 541 426.7 541 400 541C373.3 541 346.7 541 320 541C293.3 541 266.7 541 240 541C213.3 541 186.7 541 160 541C133.3 541 106.7 541 80 541C53.3 541 26.7 541 13.3 541L0 541Z" fill="#fabd59"></path><path d="M0 420L13.3 420C26.7 420 53.3 420 80 420C106.7 420 133.3 420 160 419.8C186.7 419.7 213.3 419.3 240 419.3C266.7 419.3 293.3 419.7 320 420C346.7 420.3 373.3 420.7 400 420.5C426.7 420.3 453.3 419.7 480 419C506.7 418.3 533.3 417.7 560 417.8C586.7 418 613.3 419 640 418.7C666.7 418.3 693.3 416.7 720 415.7C746.7 414.7 773.3 414.3 800 414.7C826.7 415 853.3 416 880 415.7C906.7 415.3 933.3 413.7 946.7 412.8L960 412L960 541L946.7 541C933.3 541 906.7 541 880 541C853.3 541 826.7 541 800 541C773.3 541 746.7 541 720 541C693.3 541 666.7 541 640 541C613.3 541 586.7 541 560 541C533.3 541 506.7 541 480 541C453.3 541 426.7 541 400 541C373.3 541 346.7 541 320 541C293.3 541 266.7 541 240 541C213.3 541 186.7 541 160 541C133.3 541 106.7 541 80 541C53.3 541 26.7 541 13.3 541L0 541Z" fill="#fdcd83"></path><path d="M0 445L13.3 445.2C26.7 445.3 53.3 445.7 80 445.8C106.7 446 133.3 446 160 446.3C186.7 446.7 213.3 447.3 240 448C266.7 448.7 293.3 449.3 320 449C346.7 448.7 373.3 447.3 400 446.3C426.7 445.3 453.3 444.7 480 445C506.7 445.3 533.3 446.7 560 446.8C586.7 447 613.3 446 640 445C666.7 444 693.3 443 720 443.7C746.7 444.3 773.3 446.7 800 446.7C826.7 446.7 853.3 444.3 880 443.7C906.7 443 933.3 444 946.7 444.5L960 445L960 541L946.7 541C933.3 541 906.7 541 880 541C853.3 541 826.7 541 800 541C773.3 541 746.7 541 720 541C693.3 541 666.7 541 640 541C613.3 541 586.7 541 560 541C533.3 541 506.7 541 480 541C453.3 541 426.7 541 400 541C373.3 541 346.7 541 320 541C293.3 541 266.7 541 240 541C213.3 541 186.7 541 160 541C133.3 541 106.7 541 80 541C53.3 541 26.7 541 13.3 541L0 541Z" fill="#ffddac"></path><path d="M0 474L13.3 474.2C26.7 474.3 53.3 474.7 80 475.2C106.7 475.7 133.3 476.3 160 475.7C186.7 475 213.3 473 240 472.7C266.7 472.3 293.3 473.7 320 473.7C346.7 473.7 373.3 472.3 400 472.8C426.7 473.3 453.3 475.7 480 476.5C506.7 477.3 533.3 476.7 560 476.3C586.7 476 613.3 476 640 476C666.7 476 693.3 476 720 476.2C746.7 476.3 773.3 476.7 800 476C826.7 475.3 853.3 473.7 880 473.3C906.7 473 933.3 474 946.7 474.5L960 475L960 541L946.7 541C933.3 541 906.7 541 880 541C853.3 541 826.7 541 800 541C773.3 541 746.7 541 720 541C693.3 541 666.7 541 640 541C613.3 541 586.7 541 560 541C533.3 541 506.7 541 480 541C453.3 541 426.7 541 400 541C373.3 541 346.7 541 320 541C293.3 541 266.7 541 240 541C213.3 541 186.7 541 160 541C133.3 541 106.7 541 80 541C53.3 541 26.7 541 13.3 541L0 541Z" fill="#ffeed5"></path><path d="M0 506L13.3 505C26.7 504 53.3 502 80 502C106.7 502 133.3 504 160 504.2C186.7 504.3 213.3 502.7 240 501.8C266.7 501 293.3 501 320 501.7C346.7 502.3 373.3 503.7 400 503.8C426.7 504 453.3 503 480 502.5C506.7 502 533.3 502 560 502.7C586.7 503.3 613.3 504.7 640 504.7C666.7 504.7 693.3 503.3 720 503.3C746.7 503.3 773.3 504.7 800 505.3C826.7 506 853.3 506 880 505.3C906.7 504.7 933.3 503.3 946.7 502.7L960 502L960 541L946.7 541C933.3 541 906.7 541 880 541C853.3 541 826.7 541 800 541C773.3 541 746.7 541 720 541C693.3 541 666.7 541 640 541C613.3 541 586.7 541 560 541C533.3 541 506.7 541 480 541C453.3 541 426.7 541 400 541C373.3 541 346.7 541 320 541C293.3 541 266.7 541 240 541C213.3 541 186.7 541 160 541C133.3 541 106.7 541 80 541C53.3 541 26.7 541 13.3 541L0 541Z" fill="#ffffff"></path></svg>